<mxfile host="app.diagrams.net" modified="2023-05-03T10:48:59.699Z" agent="Mozilla/5.0 (Windows NT 10.0; Win64; x64) AppleWebKit/537.36 (KHTML, like Gecko) Chrome/112.0.0.0 Safari/537.36" etag="seeTHrD9iuEOGXwo3zg8" version="21.2.4" type="device">
  <diagram id="C5RBs43oDa-KdzZeNtuy" name="Page-1">
    <mxGraphModel dx="3185" dy="1038" grid="1" gridSize="10" guides="1" tooltips="1" connect="1" arrows="1" fold="1" page="1" pageScale="1" pageWidth="827" pageHeight="1169" math="0" shadow="0">
      <root>
        <mxCell id="WIyWlLk6GJQsqaUBKTNV-0" />
        <mxCell id="WIyWlLk6GJQsqaUBKTNV-1" parent="WIyWlLk6GJQsqaUBKTNV-0" />
        <mxCell id="rXGMooWoS6gSa3FmGQ2G-5" value="Text" style="swimlane;fontStyle=1;align=center;verticalAlign=top;childLayout=stackLayout;horizontal=1;startSize=26;horizontalStack=0;resizeParent=1;resizeParentMax=0;resizeLast=0;collapsible=1;marginBottom=0;whiteSpace=wrap;html=1;" parent="WIyWlLk6GJQsqaUBKTNV-1" vertex="1">
          <mxGeometry x="-810" y="160" width="420" height="354" as="geometry" />
        </mxCell>
        <mxCell id="rXGMooWoS6gSa3FmGQ2G-6" value="-&amp;nbsp;_words : string[]" style="text;strokeColor=none;fillColor=none;align=left;verticalAlign=top;spacingLeft=4;spacingRight=4;overflow=hidden;rotatable=0;points=[[0,0.5],[1,0.5]];portConstraint=eastwest;whiteSpace=wrap;html=1;" parent="rXGMooWoS6gSa3FmGQ2G-5" vertex="1">
          <mxGeometry y="26" width="420" height="26" as="geometry" />
        </mxCell>
        <mxCell id="BkC-CegpajAxkiRnwT4U-19" value="-&amp;nbsp;_delimiters : List&amp;lt;string&amp;gt;" style="text;strokeColor=none;fillColor=none;align=left;verticalAlign=top;spacingLeft=4;spacingRight=4;overflow=hidden;rotatable=0;points=[[0,0.5],[1,0.5]];portConstraint=eastwest;whiteSpace=wrap;html=1;" vertex="1" parent="rXGMooWoS6gSa3FmGQ2G-5">
          <mxGeometry y="52" width="420" height="26" as="geometry" />
        </mxCell>
        <mxCell id="BkC-CegpajAxkiRnwT4U-20" value="-&amp;nbsp;_index : int" style="text;strokeColor=none;fillColor=none;align=left;verticalAlign=top;spacingLeft=4;spacingRight=4;overflow=hidden;rotatable=0;points=[[0,0.5],[1,0.5]];portConstraint=eastwest;whiteSpace=wrap;html=1;" vertex="1" parent="rXGMooWoS6gSa3FmGQ2G-5">
          <mxGeometry y="78" width="420" height="26" as="geometry" />
        </mxCell>
        <mxCell id="BkC-CegpajAxkiRnwT4U-26" value="" style="line;strokeWidth=1;fillColor=none;align=left;verticalAlign=middle;spacingTop=-1;spacingLeft=3;spacingRight=3;rotatable=0;labelPosition=right;points=[];portConstraint=eastwest;strokeColor=inherit;" vertex="1" parent="rXGMooWoS6gSa3FmGQ2G-5">
          <mxGeometry y="104" width="420" height="8" as="geometry" />
        </mxCell>
        <mxCell id="BkC-CegpajAxkiRnwT4U-27" value="+ Word : string" style="text;strokeColor=none;fillColor=none;align=left;verticalAlign=top;spacingLeft=4;spacingRight=4;overflow=hidden;rotatable=0;points=[[0,0.5],[1,0.5]];portConstraint=eastwest;whiteSpace=wrap;html=1;" vertex="1" parent="rXGMooWoS6gSa3FmGQ2G-5">
          <mxGeometry y="112" width="420" height="26" as="geometry" />
        </mxCell>
        <mxCell id="BkC-CegpajAxkiRnwT4U-28" value="+ IsEnd : bool" style="text;strokeColor=none;fillColor=none;align=left;verticalAlign=top;spacingLeft=4;spacingRight=4;overflow=hidden;rotatable=0;points=[[0,0.5],[1,0.5]];portConstraint=eastwest;whiteSpace=wrap;html=1;" vertex="1" parent="rXGMooWoS6gSa3FmGQ2G-5">
          <mxGeometry y="138" width="420" height="26" as="geometry" />
        </mxCell>
        <mxCell id="BkC-CegpajAxkiRnwT4U-29" value="- CurrentIndex : int" style="text;strokeColor=none;fillColor=none;align=left;verticalAlign=top;spacingLeft=4;spacingRight=4;overflow=hidden;rotatable=0;points=[[0,0.5],[1,0.5]];portConstraint=eastwest;whiteSpace=wrap;html=1;" vertex="1" parent="rXGMooWoS6gSa3FmGQ2G-5">
          <mxGeometry y="164" width="420" height="26" as="geometry" />
        </mxCell>
        <mxCell id="rXGMooWoS6gSa3FmGQ2G-7" value="" style="line;strokeWidth=1;fillColor=none;align=left;verticalAlign=middle;spacingTop=-1;spacingLeft=3;spacingRight=3;rotatable=0;labelPosition=right;points=[];portConstraint=eastwest;strokeColor=inherit;" parent="rXGMooWoS6gSa3FmGQ2G-5" vertex="1">
          <mxGeometry y="190" width="420" height="8" as="geometry" />
        </mxCell>
        <mxCell id="rXGMooWoS6gSa3FmGQ2G-8" value="+ MoveNext()" style="text;strokeColor=none;fillColor=none;align=left;verticalAlign=top;spacingLeft=4;spacingRight=4;overflow=hidden;rotatable=0;points=[[0,0.5],[1,0.5]];portConstraint=eastwest;whiteSpace=wrap;html=1;" parent="rXGMooWoS6gSa3FmGQ2G-5" vertex="1">
          <mxGeometry y="198" width="420" height="26" as="geometry" />
        </mxCell>
        <mxCell id="BkC-CegpajAxkiRnwT4U-30" value="+ TryGetDistanceToClosest(targetWord : string, distance : int) : bool" style="text;strokeColor=none;fillColor=none;align=left;verticalAlign=top;spacingLeft=4;spacingRight=4;overflow=hidden;rotatable=0;points=[[0,0.5],[1,0.5]];portConstraint=eastwest;whiteSpace=wrap;html=1;" vertex="1" parent="rXGMooWoS6gSa3FmGQ2G-5">
          <mxGeometry y="224" width="420" height="26" as="geometry" />
        </mxCell>
        <mxCell id="BkC-CegpajAxkiRnwT4U-31" value="+ GetCurrentPosition() : int" style="text;strokeColor=none;fillColor=none;align=left;verticalAlign=top;spacingLeft=4;spacingRight=4;overflow=hidden;rotatable=0;points=[[0,0.5],[1,0.5]];portConstraint=eastwest;whiteSpace=wrap;html=1;" vertex="1" parent="rXGMooWoS6gSa3FmGQ2G-5">
          <mxGeometry y="250" width="420" height="26" as="geometry" />
        </mxCell>
        <mxCell id="BkC-CegpajAxkiRnwT4U-32" value="- GetDelimeter(index : int) :&amp;nbsp;string" style="text;strokeColor=none;fillColor=none;align=left;verticalAlign=top;spacingLeft=4;spacingRight=4;overflow=hidden;rotatable=0;points=[[0,0.5],[1,0.5]];portConstraint=eastwest;whiteSpace=wrap;html=1;" vertex="1" parent="rXGMooWoS6gSa3FmGQ2G-5">
          <mxGeometry y="276" width="420" height="26" as="geometry" />
        </mxCell>
        <mxCell id="BkC-CegpajAxkiRnwT4U-33" value="- GetShift(word : string, delimeter : string) :&amp;nbsp;int" style="text;strokeColor=none;fillColor=none;align=left;verticalAlign=top;spacingLeft=4;spacingRight=4;overflow=hidden;rotatable=0;points=[[0,0.5],[1,0.5]];portConstraint=eastwest;whiteSpace=wrap;html=1;" vertex="1" parent="rXGMooWoS6gSa3FmGQ2G-5">
          <mxGeometry y="302" width="420" height="26" as="geometry" />
        </mxCell>
        <mxCell id="BkC-CegpajAxkiRnwT4U-34" value="- GetShift(text : string)" style="text;strokeColor=none;fillColor=none;align=left;verticalAlign=top;spacingLeft=4;spacingRight=4;overflow=hidden;rotatable=0;points=[[0,0.5],[1,0.5]];portConstraint=eastwest;whiteSpace=wrap;html=1;" vertex="1" parent="rXGMooWoS6gSa3FmGQ2G-5">
          <mxGeometry y="328" width="420" height="26" as="geometry" />
        </mxCell>
        <mxCell id="BkC-CegpajAxkiRnwT4U-39" value="*" style="edgeStyle=orthogonalEdgeStyle;rounded=0;orthogonalLoop=1;jettySize=auto;html=1;endArrow=open;endFill=0;startArrow=diamondThin;startFill=1;" edge="1" parent="WIyWlLk6GJQsqaUBKTNV-1" source="rXGMooWoS6gSa3FmGQ2G-9" target="BkC-CegpajAxkiRnwT4U-21">
          <mxGeometry x="0.9091" y="10" relative="1" as="geometry">
            <Array as="points">
              <mxPoint x="-280" y="50" />
            </Array>
            <mxPoint as="offset" />
          </mxGeometry>
        </mxCell>
        <mxCell id="BkC-CegpajAxkiRnwT4U-40" value="2" style="edgeStyle=orthogonalEdgeStyle;rounded=0;orthogonalLoop=1;jettySize=auto;html=1;endArrow=open;endFill=0;startArrow=diamondThin;startFill=1;" edge="1" parent="WIyWlLk6GJQsqaUBKTNV-1" source="rXGMooWoS6gSa3FmGQ2G-9" target="rXGMooWoS6gSa3FmGQ2G-5">
          <mxGeometry x="0.5" y="-10" relative="1" as="geometry">
            <Array as="points">
              <mxPoint x="-350" y="170" />
              <mxPoint x="-350" y="170" />
            </Array>
            <mxPoint as="offset" />
          </mxGeometry>
        </mxCell>
        <mxCell id="rXGMooWoS6gSa3FmGQ2G-9" value="TextComparer" style="swimlane;fontStyle=1;align=center;verticalAlign=top;childLayout=stackLayout;horizontal=1;startSize=26;horizontalStack=0;resizeParent=1;resizeParentMax=0;resizeLast=0;collapsible=1;marginBottom=0;whiteSpace=wrap;html=1;" parent="WIyWlLk6GJQsqaUBKTNV-1" vertex="1">
          <mxGeometry x="-350" y="150" width="610" height="320" as="geometry" />
        </mxCell>
        <mxCell id="rXGMooWoS6gSa3FmGQ2G-10" value="- _changedWordColor : Color" style="text;strokeColor=none;fillColor=none;align=left;verticalAlign=top;spacingLeft=4;spacingRight=4;overflow=hidden;rotatable=0;points=[[0,0.5],[1,0.5]];portConstraint=eastwest;whiteSpace=wrap;html=1;" parent="rXGMooWoS6gSa3FmGQ2G-9" vertex="1">
          <mxGeometry y="26" width="610" height="26" as="geometry" />
        </mxCell>
        <mxCell id="BkC-CegpajAxkiRnwT4U-10" value="- _additionalWordColor : Color" style="text;strokeColor=none;fillColor=none;align=left;verticalAlign=top;spacingLeft=4;spacingRight=4;overflow=hidden;rotatable=0;points=[[0,0.5],[1,0.5]];portConstraint=eastwest;whiteSpace=wrap;html=1;" vertex="1" parent="rXGMooWoS6gSa3FmGQ2G-9">
          <mxGeometry y="52" width="610" height="26" as="geometry" />
        </mxCell>
        <mxCell id="BkC-CegpajAxkiRnwT4U-11" value="- _sourceFoundedWords : List&amp;lt;SelectionRange&amp;gt;" style="text;strokeColor=none;fillColor=none;align=left;verticalAlign=top;spacingLeft=4;spacingRight=4;overflow=hidden;rotatable=0;points=[[0,0.5],[1,0.5]];portConstraint=eastwest;whiteSpace=wrap;html=1;" vertex="1" parent="rXGMooWoS6gSa3FmGQ2G-9">
          <mxGeometry y="78" width="610" height="26" as="geometry" />
        </mxCell>
        <mxCell id="BkC-CegpajAxkiRnwT4U-12" value="- _resultFoundedWords : List&amp;lt;SelectionRange&amp;gt;" style="text;strokeColor=none;fillColor=none;align=left;verticalAlign=top;spacingLeft=4;spacingRight=4;overflow=hidden;rotatable=0;points=[[0,0.5],[1,0.5]];portConstraint=eastwest;whiteSpace=wrap;html=1;" vertex="1" parent="rXGMooWoS6gSa3FmGQ2G-9">
          <mxGeometry y="104" width="610" height="26" as="geometry" />
        </mxCell>
        <mxCell id="BkC-CegpajAxkiRnwT4U-13" value="- _source : Text" style="text;strokeColor=none;fillColor=none;align=left;verticalAlign=top;spacingLeft=4;spacingRight=4;overflow=hidden;rotatable=0;points=[[0,0.5],[1,0.5]];portConstraint=eastwest;whiteSpace=wrap;html=1;" vertex="1" parent="rXGMooWoS6gSa3FmGQ2G-9">
          <mxGeometry y="130" width="610" height="26" as="geometry" />
        </mxCell>
        <mxCell id="BkC-CegpajAxkiRnwT4U-14" value="- _result : Text" style="text;strokeColor=none;fillColor=none;align=left;verticalAlign=top;spacingLeft=4;spacingRight=4;overflow=hidden;rotatable=0;points=[[0,0.5],[1,0.5]];portConstraint=eastwest;whiteSpace=wrap;html=1;" vertex="1" parent="rXGMooWoS6gSa3FmGQ2G-9">
          <mxGeometry y="156" width="610" height="26" as="geometry" />
        </mxCell>
        <mxCell id="rXGMooWoS6gSa3FmGQ2G-11" value="" style="line;strokeWidth=1;fillColor=none;align=left;verticalAlign=middle;spacingTop=-1;spacingLeft=3;spacingRight=3;rotatable=0;labelPosition=right;points=[];portConstraint=eastwest;strokeColor=inherit;" parent="rXGMooWoS6gSa3FmGQ2G-9" vertex="1">
          <mxGeometry y="182" width="610" height="8" as="geometry" />
        </mxCell>
        <mxCell id="rXGMooWoS6gSa3FmGQ2G-12" value="+&amp;nbsp;Compare (sourceFoundedWords : List&amp;lt;SelectionRange&amp;gt;, resultFoundedWords : List&amp;lt;SelectionRange&amp;gt;)" style="text;strokeColor=none;fillColor=none;align=left;verticalAlign=top;spacingLeft=4;spacingRight=4;overflow=hidden;rotatable=0;points=[[0,0.5],[1,0.5]];portConstraint=eastwest;whiteSpace=wrap;html=1;" parent="rXGMooWoS6gSa3FmGQ2G-9" vertex="1">
          <mxGeometry y="190" width="610" height="26" as="geometry" />
        </mxCell>
        <mxCell id="BkC-CegpajAxkiRnwT4U-15" value="- AddWordsByMatch()" style="text;strokeColor=none;fillColor=none;align=left;verticalAlign=top;spacingLeft=4;spacingRight=4;overflow=hidden;rotatable=0;points=[[0,0.5],[1,0.5]];portConstraint=eastwest;whiteSpace=wrap;html=1;" vertex="1" parent="rXGMooWoS6gSa3FmGQ2G-9">
          <mxGeometry y="216" width="610" height="26" as="geometry" />
        </mxCell>
        <mxCell id="BkC-CegpajAxkiRnwT4U-16" value="- AddClosestWord(sourceWordDistance : int, resultWordDistance : int)" style="text;strokeColor=none;fillColor=none;align=left;verticalAlign=top;spacingLeft=4;spacingRight=4;overflow=hidden;rotatable=0;points=[[0,0.5],[1,0.5]];portConstraint=eastwest;whiteSpace=wrap;html=1;" vertex="1" parent="rXGMooWoS6gSa3FmGQ2G-9">
          <mxGeometry y="242" width="610" height="26" as="geometry" />
        </mxCell>
        <mxCell id="BkC-CegpajAxkiRnwT4U-17" value="- AddChangedWords()" style="text;strokeColor=none;fillColor=none;align=left;verticalAlign=top;spacingLeft=4;spacingRight=4;overflow=hidden;rotatable=0;points=[[0,0.5],[1,0.5]];portConstraint=eastwest;whiteSpace=wrap;html=1;" vertex="1" parent="rXGMooWoS6gSa3FmGQ2G-9">
          <mxGeometry y="268" width="610" height="26" as="geometry" />
        </mxCell>
        <mxCell id="BkC-CegpajAxkiRnwT4U-18" value="- AddCurrentWord(words List&amp;lt;SelectionRange&amp;gt;, text : Text, color : Color)" style="text;strokeColor=none;fillColor=none;align=left;verticalAlign=top;spacingLeft=4;spacingRight=4;overflow=hidden;rotatable=0;points=[[0,0.5],[1,0.5]];portConstraint=eastwest;whiteSpace=wrap;html=1;" vertex="1" parent="rXGMooWoS6gSa3FmGQ2G-9">
          <mxGeometry y="294" width="610" height="26" as="geometry" />
        </mxCell>
        <mxCell id="rXGMooWoS6gSa3FmGQ2G-26" value="&amp;lt;&amp;lt;local&amp;gt;&amp;gt;" style="edgeStyle=orthogonalEdgeStyle;rounded=0;orthogonalLoop=1;jettySize=auto;html=1;endArrow=open;endFill=0;startArrow=none;startFill=0;labelPosition=center;verticalLabelPosition=top;align=center;verticalAlign=bottom;" parent="WIyWlLk6GJQsqaUBKTNV-1" source="rXGMooWoS6gSa3FmGQ2G-13" target="rXGMooWoS6gSa3FmGQ2G-9" edge="1">
          <mxGeometry relative="1" as="geometry">
            <Array as="points">
              <mxPoint x="290" y="160" />
              <mxPoint x="290" y="160" />
            </Array>
          </mxGeometry>
        </mxCell>
        <mxCell id="BkC-CegpajAxkiRnwT4U-38" value="&amp;lt;&amp;lt;parameter&amp;gt;&amp;gt;" style="edgeStyle=orthogonalEdgeStyle;rounded=0;orthogonalLoop=1;jettySize=auto;html=1;endArrow=open;endFill=0;startArrow=none;startFill=0;labelPosition=center;verticalLabelPosition=top;align=center;verticalAlign=bottom;" edge="1" parent="WIyWlLk6GJQsqaUBKTNV-1" source="rXGMooWoS6gSa3FmGQ2G-13" target="BkC-CegpajAxkiRnwT4U-21">
          <mxGeometry relative="1" as="geometry">
            <Array as="points">
              <mxPoint x="640" y="30" />
            </Array>
          </mxGeometry>
        </mxCell>
        <mxCell id="rXGMooWoS6gSa3FmGQ2G-13" value="Form" style="swimlane;fontStyle=1;align=center;verticalAlign=top;childLayout=stackLayout;horizontal=1;startSize=26;horizontalStack=0;resizeParent=1;resizeParentMax=0;resizeLast=0;collapsible=1;marginBottom=0;whiteSpace=wrap;html=1;" parent="WIyWlLk6GJQsqaUBKTNV-1" vertex="1">
          <mxGeometry x="330" y="150" width="480" height="130" as="geometry" />
        </mxCell>
        <mxCell id="rXGMooWoS6gSa3FmGQ2G-16" value="-&amp;nbsp;CompareButton_Click()" style="text;strokeColor=none;fillColor=none;align=left;verticalAlign=top;spacingLeft=4;spacingRight=4;overflow=hidden;rotatable=0;points=[[0,0.5],[1,0.5]];portConstraint=eastwest;whiteSpace=wrap;html=1;" parent="rXGMooWoS6gSa3FmGQ2G-13" vertex="1">
          <mxGeometry y="26" width="480" height="26" as="geometry" />
        </mxCell>
        <mxCell id="BkC-CegpajAxkiRnwT4U-0" value="-&amp;nbsp;ClearBackgroundColor(richTextBox: RichTextBox)" style="text;strokeColor=none;fillColor=none;align=left;verticalAlign=top;spacingLeft=4;spacingRight=4;overflow=hidden;rotatable=0;points=[[0,0.5],[1,0.5]];portConstraint=eastwest;whiteSpace=wrap;html=1;" vertex="1" parent="rXGMooWoS6gSa3FmGQ2G-13">
          <mxGeometry y="52" width="480" height="26" as="geometry" />
        </mxCell>
        <mxCell id="BkC-CegpajAxkiRnwT4U-1" value="-&amp;nbsp;PaintText(richTextBox: RichTextBox, words: List&amp;lt;SelectionRange&amp;gt;)" style="text;strokeColor=none;fillColor=none;align=left;verticalAlign=top;spacingLeft=4;spacingRight=4;overflow=hidden;rotatable=0;points=[[0,0.5],[1,0.5]];portConstraint=eastwest;whiteSpace=wrap;html=1;" vertex="1" parent="rXGMooWoS6gSa3FmGQ2G-13">
          <mxGeometry y="78" width="480" height="26" as="geometry" />
        </mxCell>
        <mxCell id="BkC-CegpajAxkiRnwT4U-6" value="-&amp;nbsp;PaintWord(richTextBox: RichTextBox, selectionRange: SelectionRange)" style="text;strokeColor=none;fillColor=none;align=left;verticalAlign=top;spacingLeft=4;spacingRight=4;overflow=hidden;rotatable=0;points=[[0,0.5],[1,0.5]];portConstraint=eastwest;whiteSpace=wrap;html=1;" vertex="1" parent="rXGMooWoS6gSa3FmGQ2G-13">
          <mxGeometry y="104" width="480" height="26" as="geometry" />
        </mxCell>
        <mxCell id="BkC-CegpajAxkiRnwT4U-21" value="&lt;span style=&quot;font-weight: normal;&quot;&gt;&amp;lt;&amp;lt;Struct&amp;gt;&amp;gt;&lt;/span&gt;&lt;br&gt;SelectionRange" style="swimlane;fontStyle=1;align=center;verticalAlign=top;childLayout=stackLayout;horizontal=1;startSize=40;horizontalStack=0;resizeParent=1;resizeParentMax=0;resizeLast=0;collapsible=1;marginBottom=0;whiteSpace=wrap;html=1;" vertex="1" parent="WIyWlLk6GJQsqaUBKTNV-1">
          <mxGeometry x="-550" y="20" width="160" height="118" as="geometry" />
        </mxCell>
        <mxCell id="BkC-CegpajAxkiRnwT4U-22" value="+ Start : int" style="text;strokeColor=none;fillColor=none;align=left;verticalAlign=top;spacingLeft=4;spacingRight=4;overflow=hidden;rotatable=0;points=[[0,0.5],[1,0.5]];portConstraint=eastwest;whiteSpace=wrap;html=1;" vertex="1" parent="BkC-CegpajAxkiRnwT4U-21">
          <mxGeometry y="40" width="160" height="26" as="geometry" />
        </mxCell>
        <mxCell id="BkC-CegpajAxkiRnwT4U-35" value="+ Length : int" style="text;strokeColor=none;fillColor=none;align=left;verticalAlign=top;spacingLeft=4;spacingRight=4;overflow=hidden;rotatable=0;points=[[0,0.5],[1,0.5]];portConstraint=eastwest;whiteSpace=wrap;html=1;" vertex="1" parent="BkC-CegpajAxkiRnwT4U-21">
          <mxGeometry y="66" width="160" height="26" as="geometry" />
        </mxCell>
        <mxCell id="BkC-CegpajAxkiRnwT4U-36" value="+ Color : Color" style="text;strokeColor=none;fillColor=none;align=left;verticalAlign=top;spacingLeft=4;spacingRight=4;overflow=hidden;rotatable=0;points=[[0,0.5],[1,0.5]];portConstraint=eastwest;whiteSpace=wrap;html=1;" vertex="1" parent="BkC-CegpajAxkiRnwT4U-21">
          <mxGeometry y="92" width="160" height="26" as="geometry" />
        </mxCell>
      </root>
    </mxGraphModel>
  </diagram>
</mxfile>
